<svg xmlns="http://www.w3.org/2000/svg"  viewBox="0 0 48 48" width="48px" height="48px"><path fill="#f58420" d="M15.115,11.931c0.126,0.147,0.414,0.187,0.574,0.074C19.07,9.619,23.56,8.102,27.64,9.654 c0.925,0.352,1.802,0.822,2.665,1.304c0.602,0.337,1.526,1.158,2.259,0.855c0.718-0.297,1.279-0.794,1.795-1.352 c0.616-0.666,1.142-1.406,1.579-2.2c0.132-0.24,0.044-0.496-0.17-0.648c-3.264-2.326-7.053-3.442-11.034-3.586 C20.671,3.881,16.341,4.276,13,6.822c-0.009,0.007-0.013,0.017-0.022,0.025c-0.025,0.017-0.051,0.026-0.074,0.049 c-0.285,0.287-0.57,0.573-0.854,0.86c-0.191,0.192-0.167,0.475,0,0.67C13.154,9.717,14.01,10.64,15.115,11.931z"/><path fill="#373837" d="M42.958,17.687c-0.75-1.638-1.487-3.06-2.253-4.348c-0.623-1.047-1.374-1.994-2.1-2.911L38.13,9.827 l-0.378-0.483l-0.397,0.468l-2.449,2.886l-0.481,0.567l-0.256,0.301l0.234,0.318c3.472,4.727,4.561,11.155,2.843,16.777 l-0.03,0.099l0.011,0.103l-0.014-0.005l-0.04-0.013l-0.026-0.031L37.11,30.78l-2.656-2.28l-1.665-1.429l-2.154-1.849 c-0.127-0.109-0.256-0.216-0.385-0.324c-0.513-0.428-0.998-0.832-1.364-1.323c-0.411-0.552-0.631-1.221-0.865-1.93 c-0.328-0.993-0.649-1.85-0.984-2.618c-0.366-0.842-0.818-1.737-1.383-2.737l-1.099-1.945l0.165,2.228l0.272,3.672l0.009,0.125 c0.039,0.53,0.089,1.063,0.138,1.599c0.124,1.342,0.253,2.729,0.212,4.064c-0.008,0.258-0.041,0.514-0.076,0.785 c-0.022,0.172-0.044,0.345-0.061,0.52c-0.067,0.722,0.4,1.148,0.741,1.459c0.057,0.052,0.115,0.105,0.171,0.16l0.723,0.703 l1.289,1.253l2.1,2.041l2.092,2.033c-0.006,0.002-0.014,0.02-0.03,0.039c-1.592,1.942-4.246,2.926-7.888,2.926 c-1.482-0.002-3.134-0.004-4.529-0.628c-0.318-0.142-0.624-0.31-0.947-0.487c-0.429-0.235-0.873-0.479-1.356-0.663 c-0.846-0.322-1.729-0.505-2.582-0.682l-0.016-0.003c0.004-0.017,0.011-0.035,0.021-0.047c1.17-1.488,2.434-2.879,3.757-4.134 c0.671-0.637,1.376-1.259,2.096-1.848c0.366-0.299,0.738-0.591,1.113-0.878c0.043-0.033,0.095-0.065,0.148-0.099 c0.156-0.1,0.332-0.213,0.465-0.38c0.364-0.46,0.285-0.882,0.228-1.19l-0.024-0.136c-0.083-0.518-0.179-1.041-0.275-1.567 c-0.272-1.479-0.552-3.008-0.529-4.474c0.011-0.682,0.109-1.352,0.212-1.975l-0.96-0.261l-0.228,0.6 c-0.095,0.252-0.19,0.504-0.287,0.755c-0.099,0.257-0.194,0.518-0.29,0.782c-0.418,1.148-0.851,2.335-1.644,3.205 c-0.68,0.746-1.5,1.423-2.294,2.078c-0.486,0.401-0.988,0.815-1.459,1.245c-1.243,1.135-2.491,2.359-3.711,3.636 c-1.291-2.538-1.795-5.652-1.477-9.239c0.156-1.755,0.335-3.319,0.952-4.69c0.55-1.22,1.528-2.179,2.483-3.056l0.344-0.316 l-0.293-0.365l-1.23-1.533l-1.58-1.97l-0.33-0.411l-0.393,0.35c-2.211,1.974-3.882,4.664-4.831,7.778 c-0.809,2.655-1.537,6.623-0.406,10.447c1.97,6.657,6.178,11.909,11.546,14.41c1.294,0.603,2.681,1.062,4.121,1.364 c0.435,0.091,0.875,0.132,1.425,0.132c0.235,0,0.472-0.007,0.715-0.015l0.415-0.011l0.618-0.011 c1.144-0.018,2.327-0.037,3.525-0.249c1.569-0.277,3.212-0.758,4.884-1.429c3.59-1.441,6.096-3.13,7.885-5.316 c1.869-2.285,3.153-5.198,3.814-8.657C44.037,25.251,44.555,21.172,42.958,17.687z"/><path fill="#010101" d="M44.102,19.303c-0.531-1.861-1.541-3.645-2.464-5.335c-0.974-1.783-2.238-3.262-3.455-4.873 c-0.177-0.234-0.555-0.372-0.785-0.101c-1.192,1.405-2.384,2.809-3.576,4.214c-0.13,0.153-0.218,0.423-0.078,0.606 c3.484,4.563,4.668,10.622,3.18,16.151c-1.22-1.047-2.44-2.094-3.66-3.141c-0.687-0.589-1.374-1.179-2.061-1.768 c-0.651-0.559-1.418-1.092-1.928-1.791c-0.482-0.662-0.676-1.481-0.937-2.244c-0.267-0.778-0.568-1.544-0.896-2.298 c-0.681-1.567-1.505-3.066-2.444-4.493c-0.252-0.383-0.971-0.275-0.932,0.252c0.151,2.032,0.302,4.065,0.452,6.097 c0.078,1.057,0.157,2.114,0.235,3.17c0.076,1.021,0.172,2.055,0.038,3.075c-0.051,0.392-0.163,0.796-0.054,1.189 c0.097,0.35,0.347,0.617,0.594,0.868c0.713,0.724,1.459,1.418,2.188,2.126c1.37,1.331,2.739,2.663,4.109,3.994 c-1.977,2.062-4.941,2.497-7.702,2.448c-1.563-0.028-3.031-0.122-4.431-0.877c-1.188-0.641-2.351-1.066-3.622-1.383 c1.11-1.351,2.288-2.645,3.57-3.835c0.692-0.642,1.408-1.259,2.145-1.848c0.607-0.485,1.735-1.004,1.796-1.885 c0.035-0.496-0.127-1.039-0.204-1.523c-0.085-0.534-0.17-1.067-0.255-1.601c-0.174-1.093-0.393-2.192-0.435-3.3 c-0.082-2.15,0.749-4.213,0.643-6.367c-0.029-0.58-0.786-0.657-0.982-0.133c-0.593,1.581-1.191,3.16-1.798,4.736 c-0.577,1.5-1.013,3.188-2.194,4.338c-1.133,1.104-2.414,2.066-3.582,3.136c-1.063,0.974-2.09,1.986-3.095,3.02 c-1.141-2.562-1.377-5.413-1.153-8.193c0.119-1.481,0.272-3.09,0.841-4.477c0.569-1.388,1.719-2.417,2.805-3.402 c0.215-0.195,0.162-0.505,0-0.707c-1.081-1.348-2.161-2.695-3.242-4.043c-0.041-0.149-0.157-0.28-0.312-0.347 c-0.21-0.156-0.457-0.067-0.603,0.126c-4.629,3.833-6.796,10.497-6.254,16.387c0.17,1.844,0.767,3.573,1.48,5.271 c0.635,1.511,1.357,2.987,2.223,4.38c1.644,2.644,3.81,4.904,6.455,6.558c1.325,0.829,2.755,1.499,4.238,1.994 c1.099,0.366,2.364,0.8,3.534,0.753c1.005-0.04,2.009-0.007,3.013-0.049c1.701-0.071,3.391-0.384,5.022-0.866 c3.176-0.938,6.482-2.413,8.962-4.649c2.309-2.081,3.892-4.874,4.824-7.817c0.59-1.862,0.919-3.801,1.083-5.745 C44.559,23.184,44.637,21.175,44.102,19.303z M43.017,27.921c-0.581,3.04-1.735,6.02-3.71,8.434 c-2.005,2.451-4.781,4.004-7.684,5.169c-1.544,0.62-3.145,1.11-4.785,1.4c-1.365,0.241-2.691,0.224-4.066,0.253 c-0.855,0.018-1.598,0.081-2.442-0.096c-1.381-0.29-2.733-0.732-4.013-1.328C10.595,39.088,6.8,33.607,5.039,27.655 c-0.966-3.266-0.578-6.937,0.404-10.159c0.88-2.888,2.432-5.539,4.686-7.551c0.937,1.169,1.875,2.338,2.812,3.507 c-1.023,0.939-2.024,1.937-2.601,3.219c-0.674,1.495-0.851,3.232-0.995,4.851c-0.289,3.253,0.042,6.59,1.551,9.527 c0.146,0.284,0.572,0.325,0.785,0.101c1.189-1.244,2.416-2.451,3.687-3.612c1.233-1.126,2.661-2.121,3.786-3.355 c1.046-1.149,1.483-2.723,2.031-4.144c0.174-0.451,0.343-0.905,0.516-1.357c-0.113,0.678-0.208,1.359-0.219,2.049 c-0.032,2.038,0.491,4.124,0.811,6.128c0.056,0.35,0.159,0.606-0.102,0.936c-0.121,0.153-0.363,0.27-0.523,0.392 c-0.38,0.29-0.757,0.585-1.127,0.888c-0.731,0.598-1.439,1.222-2.124,1.872c-1.37,1.301-2.638,2.703-3.806,4.188 c-0.212,0.27-0.186,0.751,0.221,0.836c0.867,0.18,1.742,0.357,2.571,0.673c0.797,0.304,1.5,0.792,2.277,1.139 c1.462,0.654,3.133,0.67,4.708,0.672c3.024,0.004,6.288-0.655,8.3-3.109c0.169-0.207,0.209-0.504,0-0.707 c-1.4-1.361-2.8-2.722-4.2-4.083c-0.671-0.652-1.342-1.304-2.012-1.956c-0.375-0.364-0.815-0.649-0.763-1.215 c0.042-0.449,0.124-0.882,0.138-1.336c0.058-1.894-0.212-3.826-0.352-5.714c-0.094-1.266-0.188-2.532-0.282-3.798 c0.495,0.875,0.959,1.767,1.36,2.69c0.366,0.842,0.68,1.704,0.967,2.575c0.238,0.722,0.48,1.455,0.939,2.072 c0.5,0.672,1.193,1.186,1.824,1.728c0.718,0.616,1.436,1.232,2.154,1.849c1.441,1.236,2.881,2.472,4.322,3.708 c0.065,0.077,0.152,0.137,0.253,0.166c0.352,0.123,0.724-0.194,0.688-0.518c1.772-5.799,0.672-12.331-2.918-17.219 c0.977-1.151,1.954-2.302,2.93-3.453c0.883,1.129,1.801,2.219,2.539,3.459c0.822,1.382,1.559,2.839,2.228,4.301 C43.93,21.009,43.646,24.632,43.017,27.921z"/><path fill="#010101" d="M14.888,12.524c0.133,0.155,0.437,0.198,0.606,0.078c3.568-2.517,7.874-4.209,12.179-2.572 c0.976,0.371,1.902,0.867,2.811,1.376c0.635,0.356,1.611,1.222,2.384,0.903c0.758-0.313,1.519-1.135,2.064-1.724 c0.65-0.702,1.205-1.484,1.666-2.322c0.139-0.253,0.046-0.524-0.179-0.684c-3.444-2.454-7.442-3.632-11.643-3.783 c-4.286-0.154-8.855,0.263-12.381,2.949c-0.01,0.008-0.014,0.018-0.023,0.026c-0.026,0.018-0.053,0.027-0.078,0.052 c-0.301,0.302-0.601,0.605-0.901,0.908c-0.201,0.203-0.176,0.501,0,0.707C12.558,9.8,13.723,11.162,14.888,12.524z M24.776,4.796 c3.862,0.139,7.501,1.208,10.705,3.363c-0.42,0.697-0.893,1.355-1.465,1.94c-0.348,0.355-0.72,0.691-1.116,0.992 c-0.143,0.109-0.296,0.266-0.488,0.26c-0.196-0.006-0.583-0.332-0.757-0.431c-1.664-0.947-3.378-1.906-5.265-2.325 c-3.951-0.877-7.836,0.71-11.061,2.911c-0.968-1.132-1.936-2.263-2.904-3.395c0.181-0.182,0.363-0.365,0.544-0.548 C16.358,5.019,20.672,4.648,24.776,4.796z"/></svg>